<svg height="166" viewBox="0 0 1000 166" width="1000" xmlns="http://www.w3.org/2000/svg"><path d="m532.149318 24.5133796c.986679.3290386 4.111165.8225966 4.440059.8225966l2.137806.8225966 2.302253 1.480674 1.48002 1.4806739.822233 1.3161546v2.3032706l-1.48002 3.6194252c-.657786 1.6451932-3.124486 9.5421209-3.124486 9.8711595-.601405 1.6545944-5.326729 16.7866119-7.012135 21.8832537l-.148882.4476922c-.093026.2779043-.173303.5137377-.239082.7017598l-4.275612 16.2874133-4.604506 13.9841427c-.164447.3290386-1.315573 4.9355797-1.315573 5.1000987l.98668.16452c1.973359-2.796829 4.111166-4.771061 7.564545-8.7195246l2.4667-2.4677899c2.795592-2.6323092 6.742312-5.9226957 9.537904-7.2388503l3.124487-1.480674c1.973359-1.8097125 4.768952-2.4677898 6.248972-2.4677898l.98668.1645193 3.453379 1.1516353 3.124486 1.1516352c.328893.1645194 1.808913.8225967 2.4667 1.3161547 1.644466 1.4806739 2.960039 3.1258672 3.617826 5.2646184l.657786 3.6194252v3.7839445l-2.137806 8.061447-2.96004 8.390486-.822233 1.480674-.657786 3.454905c-.328894.658078-.822233 2.961348-.822233 3.454906 0 .987116.164446 2.46779.986679 2.961348h.657787c.98668 0 2.302253-.164519 3.288933-.493558l2.631146-.822597c3.18526-.944197 7.978537-4.259153 12.679823-7.697432l.853387-.626c1.561297-1.148325 3.100925-2.295217 4.55592-3.35744l5.591186-4.606541c2.74742-2.748634 4.993762-4.916818 6.862249-6.627825l.208956-.775544 1.644466-3.1258677c1.644467-3.1258672 5.755633-12.8325074 6.577866-13.4905847 1.315573-1.3161546 7.893438-12.6679881 10.689031-12.6679881 0 .1645193 6.248972 1.9742319 7.564546 3.1258672l2.466699 2.7968285 1.151127 1.8097126c.328893.987116.328893 1.8097126 0 2.4677899-.822234 1.1516353-3.124487 3.7839445-4.275613 5.1000991l-1.97336 2.7968285c-.49334 0-1.315573 1.480674-1.480019 1.9742319l-1.97336 3.6194252-2.631146 4.6065416-1.524179 3.130938c-.20052 1.556566-1.070665 3.3562-2.337891 5.233425-.507942 1.62266-.790202 3.253033-.906883 4.303625l-.328893 3.783944.328893 3.619425c0 .329039.49334 1.151636.657787 1.480674h1.48002c.328893-.822596 4.275612-.658077 5.920079-1.480674 0-.164519 8.222331-2.961348 19.733596-11.516352l5.591186-4.606542c.14389-.143954 2.050444-1.54751 3.956997-3.108515l.407905-.33651c.13554-.112705.270437-.225812.40405-.338919 1.062325-1.250347 2.599573-2.9283125 4.160566-4.5734939l.493208-.5179042c.102778-.1075302.205452-.2147082.307895-.3214026l-.02827-.3453758v-2.3032706c0-4.7710605.49334-7.4033697 1.315573-9.3776016.657787-1.6451932 3.94672-7.2388503 5.426739-8.2259663 5.262293-5.2646184 13.813518-10.3647175 19.404704-10.3647175l1.973359-.1645194h1.97336c2.302253 0 8.057885 2.7968286 8.057885 5.5936571l-.000374.7037563c-.004491 2.7443352-.062875 4.6367942-.821859 5.5479781-1.48002 1.8097126-9.702352 4.6065412-11.017925 5.2646185-.98668.4935579-4.275612 1.8097125-6.742312 3.9484638-1.4802 1.4808541-2.740178 3.292187-3.149222 5.5241402l.024736.3985555-.164473 2.2137354.000026 1.2411705c0 1.2430349.440047 3.5133.627475 4.454688l.030312.1518531c.822233 4.4420214 7.728992 23.0327054 9.044565 34.2200194.328893 2.961348-.328893 9.377602-1.315573 11.680873-.822233 3.619425-2.795593 6.909811-4.275613 9.213082-1.315573 1.645193-3.124486 3.125867-4.933399 4.77106-.49334.493558-8.551225 5.264619-16.11577 6.087215-.822233.16452-3.124486.329039-3.45338.329039l-6.084525-.493558c-.822233 0-2.795593-.329039-2.96004-.493558-7.893438-2.796828-10.031245-4.606541-10.031245-10.693756 0-.658077.49334-1.480674.822234-2.138751.657786-1.480674 2.631146-3.125868 4.604505-3.783945h.98668c5.097846 0 8.057885 3.783945 14.635751 3.783945.164447 0 4.768952-1.316155 7.728992-5.758177.164447-.164519 1.48002-2.46779 2.466699-4.442022.657787-1.151635.98668-3.290386.98668-4.77106 0-2.632309-.49334-4.93558-.49334-5.922696-.49334-1.924876-1.00148-3.983013-1.51998-6.050033l-.347153-1.377966c-1.011966-3.996162-2.059041-7.922075-3.109039-10.876133l-.014105.018161-.232638.255715c-.115877.127557-.231357.254821-.347632.382496l-.233964.256106c-1.650123 1.799502-3.61208 3.771612-9.160133 7.849533-2.631146 1.974232-5.920079 4.277503-10.195691 7.238851l-3.453379.987116c-3.124487 2.632309-13.813518 7.074331-18.58247 7.074331-.49334 0-5.262293-.658078-6.577866-.822597s-3.617826-1.480674-4.604506-2.138751l-1.973359-1.809713c-.676445-.676744-3.671665-4.291901-5.488323-8.459869-.217198.150199-.416162.283145-.596203.398422-.672736.40382-4.537912 3.781225-8.983531 7.068522l-.595959.437503-.601463.434821c-.603756.432943-1.213704.859442-1.823652 1.272236l-1.973359.987116c-2.795593 2.138752-5.920079 3.290387-7.893439 4.442022-3.946719 1.480674-7.564545 2.632309-10.524585 2.632309-3.288932 0-7.400098-.658077-10.524584-2.30327-.98668-.493558-2.302253-1.809713-2.96004-2.632309-.98668-.987116-2.795593-4.112984-3.124486-6.416254l-.822233-2.796829c-.059799-.2393-.163088-.674393-.27033-1.13124l-.080555-.343995c-.160123-.68527-.306902-1.321593-.306902-1.321593v-4.606541l.822234-5.593657c0-1.316155 2.631146-10.529237 5.097845-16.1228943v-.8225967l-2.302253.8225967-2.795592 1.9742323-8.222332 8.225966c-.328894.329039-3.94672 4.606541-5.262293 5.922696l-3.617826 4.442021-1.480019 2.961348-6.577866 9.542121c-.553925.761984-.903773 1.407301-1.184572 1.960512l-.199762.398022c-.286553.57228-.52844 1.03576-.917919 1.425411l-2.960039 1.480674c-1.315573.658077-2.302253.822596-4.111166.822596-2.189737 0-2.836135-.441149-3.343285-1.004194l-.135916-.15634c-.314005-.370726-.62331-.779062-1.289752-1.142736l-.657786-1.480674c0-2.796829-1.644467-4.112983-1.644467-7.732409 0-.493558.164447-1.809712.164447-1.809712l1.48002-8.884044c-.164447-1.151635 2.137806-9.542121 2.960039-12.667988l3.481162-14.3333354c-.90986-.167828-1.772738-.3088845-2.001142-.3088845h-11.182371c-3.94672 0-11.346818.8225966-15.457984 1.480674-6.906759 1.3161546-2.96004.3290386-6.742312 8.0614469l-1.48002 5.922696c0 .493558-1.315573 4.77106-1.315573 5.100099l-2.96004 11.187314c-.164446.329039-.822233 2.632309-.822233 2.961348l-.822233 2.30327c-.98668 5.264619-3.782273 13.490585-4.275613 13.984143l-1.644466 2.961348c-1.97336 2.632309-3.617826 3.948464-5.426739 3.948464-2.137806 0-2.795593-1.151635-4.768952-3.125867l-.822234-1.480674c-1.315573-4.112983-3.782272-6.580773-3.782272-9.048563 0-.164519.164446-.658077.164446-.658077l2.137807-2.961348c.438524-.292479 2.826046-2.664807 3.582184-3.419475l.200088-.199951 2.795593-8.884043c.822233-1.480674 1.48002-6.416254 3.124486-10.364718.49334-1.809712 2.631146-9.7066399 2.795593-11.0227945v-.6580773c-.164447 0-1.151126-.1645193-1.315573-.1645193l-6.577866 1.4806739c-.493339-.1645193-1.973359-1.3161546-2.302252-1.4806739l-1.644467-1.480674c0-2.1387512-2.960039-5.1000991-2.960039-8.2259663 0-2.4677899 2.466699-2.4677899 6.906758-4.4420218l5.920079-1.4806739c.075372 0 .772557-.138242 1.537393-.288004l.420562-.0820693c.771117-.1497621 1.509129-.288004 1.659871-.288004.98668-.493558 4.275613.3290386 4.275613-5.9226958l4.604506-16.2874132c0-2.1387513 1.151126-3.4549059 2.137806-4.4420218h2.302253c3.453379.9871159 9.537905 1.9742319 9.537905 8.2259663v2.9613478l-1.48002 3.6194252-2.137806 6.580773c0 .493558.164447 2.3032706.164447 2.6323093 2.302253 0 11.182371-.3290387 15.12909-.3290387 2.137807 0 8.386779.493558 11.182372 1.4806739l2.302252.8225967c.164447 0 1.151127.493558 1.48002.6580773l.559706.3243974 1.742547-5.5890159 7.235652-25.3359762c.164447-.9871159 1.808913-6.4162537 2.302253-7.567889l4.440059-13.1615461c.164447-.3290386 1.151127-1.3161546 1.48002-1.6451932zm374.444992 26.3230922c3.45338.9871159 9.537905 1.9742319 9.537905 8.2259663v2.9613478l-1.48002 3.6194252-2.137806 6.580773c0 .493558.164447 2.3032706.164447 2.6323093 2.302253 0 11.182371-.3290387 15.12909-.3290387 2.137807 0 8.386779.493558 11.182372 1.4806739l2.302253.8225967c.164446 0 1.151126.493558 1.480019.6580773l5.097846 2.9613478 2.302253.8225967v5.9226957c0 .1645193-.657787.6580773-.657787.6580773l-3.124486.8225966h-3.617826c-.49334-.1645193-3.946719-.8225966-4.440059-.8225966h-11.182371c-3.94672 0-11.346818.8225966-15.457984 1.480674-6.906759 1.3161546-2.96004.3290386-6.742312 8.0614469l-1.48002 5.922696c0 .493558-1.315573 4.77106-1.315573 5.100099l-2.96004 11.187314c-.164446.329039-.822233 2.632309-.822233 2.961348l-.822233 2.30327c-.264289 1.410166-.658363 3.032801-1.103214 4.662392l-.180461.65172c-1.188163 4.232259-2.648361 8.326303-2.991937 8.670031l-1.644467 2.961348c-1.973359 2.632309-3.617826 3.948464-5.426739 3.948464-2.137806 0-2.795593-1.151635-4.768952-3.125867l-.822234-1.480674c-1.315573-4.112983-3.782272-6.580773-3.782272-9.048563 0-.164519.164446-.658077.164446-.658077l2.137807-2.961348c.420252-.280293 2.630469-2.470724 3.479429-3.316983l.302843-.302443 2.795593-8.884043c.822233-1.480674 1.48002-6.416254 3.124486-10.364718.222003-.81437.777011-2.861402 1.335348-4.986724l.185784-.7097573c.616675-2.3649653 1.192238-4.6682359 1.274461-5.3263132v-.6580773c-.164446 0-1.151126-.1645193-1.315573-.1645193l-6.577865 1.4806739c-.49334-.1645193-1.97336-1.3161546-2.302253-1.4806739l-1.644467-1.480674c0-2.1387512-2.960039-5.1000991-2.960039-8.2259663 0-2.4677899 2.466699-2.4677899 6.906759-4.4420218l5.920079-1.4806739c.164446 0 3.288932-.6580773 3.617826-.6580773.986679-.493558 4.275612.3290386 4.275612-5.9226958l4.604506-16.2874132c0-2.1387513 1.151126-3.4549059 2.137806-4.4420218zm-562.571945-35.8652131c3.946719.493558 5.591185 2.7968285 6.084525 5.5936571v1.1516352c0 .3290387.164447.493558.164447 1.1516353v.493558c0 .1645193-.164447.8225966-.164447 1.4806739l-1.808913 3.9484639-4.111166 7.4033696-6.742312 17.4390486c-.045539.1366776-.179354.4436765-.3818.8912997l-.144917.3189227c-.927919 2.0346253-2.884105 6.2136492-4.611356 10.6364607l-.28554.7390666c-.754637 1.9751257-1.450256 3.9775498-1.976485 5.8404148l-.328894 1.1516353.49334-.493558c.328894-.3290386 7.564546-5.2646184 8.715672-5.5936571l2.302253-1.6451932c3.288933-1.9742319 6.248972-3.7839445 9.209012-5.2646185.657786-.4935579 2.795592-1.1516352 6.577865-2.3032705 1.315573-.1645194 3.124486-.493558 5.262292-.493558l1.277938.0002398c1.964849.0031177 3.808162.0467657 5.793268.6578375h1.315573c1.315573.1645193 2.137806.3290387 3.453379 1.4806739.98668 1.1516353 2.631147 1.8097126 4.604506 4.9355798.657787.987116 1.808913 3.2903865 1.808913 4.7710605l.000309 3.4841213c.006778.3811815.101915 1.8694265-2.138115 5.0708836 0 0-.701639.842339-1.456291 1.753313l-.284212.3433213c-.568328.6870327-1.120869 1.3582716-1.383983 1.6873102l-2.96004 2.7968286-2.466699 1.6451932-1.315573.987116c-5.591186 4.4420218-9.373459 5.4291377-13.813518 7.4033697-1.644466.8225966-5.262292 2.4677899-8.715672 3.7839445l-4.275612 1.4806739c-1.48002.4935584-5.591186 1.6451934-7.400099 2.3032704l1.644467 1.480674 3.124486 1.974232c1.808913 1.480674 3.453379 2.796829 5.591185 3.783945l2.4667 1.480673 5.755632 3.290387c.822233.329039 2.302253 1.316155 2.631146 1.480674l2.302253 1.316155 1.808913.822596s.004111.001645.012005.004812l.164282.06626c.442033.178998 1.599737.652813 2.125966.916044.49334.164519 2.4667.987116 3.782273.987116h6.413419c.328893 0 2.631146-.493558 3.782272-.987116l3.45338-1.316155c1.644466-.822596 3.782272-1.645193 5.097845-2.138751l1.48002-.658077c.164447 0 2.795593-1.645193 3.782273-2.46779l1.644466-1.151635c.328893-.16452.49334-.329039.98668-.822597l1.151126-.822596c1.315574-.493558 2.96004-.658078 3.782273-.493558 3.45338.329038 4.768953 1.645193 4.768953 6.087215 0 1.316154-.328894 2.796828-.822234 3.948463l-1.808913 3.619426c-1.973359 2.138751-4.111165 3.783944-6.413418 5.264618-1.315574.822597-4.111166 1.974232-5.591186 2.632309l-1.315573.493558c-.49334.493558-1.644467.987116-2.96004 1.480674l-2.137806.822597c-.822233.329038-2.137806 1.316154-5.755632 1.645193l-5.920079.164519c-.328893 0-4.275613-.493558-4.604506-.493558h-.657787s-1.315573-.329038-2.137806-.658077l-3.946719-1.480674-1.48002-.329038c-4.111166-1.974232-9.209012-4.277503-11.675711-6.745293-1.48002-.658077-4.275613-2.30327-6.084526-3.454906l-1.644466-.987116c-3.124486-1.809712-5.920079-4.112983-8.386779-6.251734-3.946719-3.454906-7.400098-6.416254-10.689031-10.035679-1.315573 2.138751-2.466699 5.758176-6.084525 13.984143l-1.151127 2.961348-4.440059 11.351833-1.315573 3.290387c-.657787 1.809712-1.808913 4.606541-3.288933 6.745292l-2.137806 1.480674s-.657787.164519-1.97336.164519h-.657786c-1.97336 0-3.94672-2.138751-5.591186-4.277502-1.151127-1.151635-1.97336-2.796829-2.795593-4.606541l.328893-2.796829c.564504-1.468359 1.439057-4.099913 2.304362-6.457197-3.790212 2.017206-9.021291 4.543694-9.540014 4.647485-.49334.329038-5.426739 1.809712-6.084525 2.138751l-1.808913.329038-7.235652 2.303271-4.275613.987116c-.164447 0-2.137806.493558-2.302253.493558-2.960039.987116-6.248972 1.151635-7.893438 1.151635-3.124486 0-9.209012-.822596-11.017925-1.809712l-6.577866-4.771061c-.986679-.822596-2.960039-4.277502-3.453379-4.93558l-1.48002-4.77106-.328893-4.93558c-.164447-.658077.328893-5.264618.328893-6.416254l.328894-3.454905c.328893-2.138752.986679-5.758177 3.288932-9.7066406l6.084526-8.7195243 2.795593-3.2903865 2.466699-2.4677899 6.742312-5.5936571 4.111166-2.6323092 2.96004-1.8097126 5.755632-2.1387513 3.782273-.8225966h2.137806c.328893 0 2.302253.6580773 2.302253.6580773l3.782273 2.6323092c.328893.1645194 1.480019.493558 4.275612 4.1129832l1.48002 2.3032705-.328893 1.974232c-.164447 1.3161546-1.151127 2.7968285-2.795593 3.9484638-.98668.6580773-2.4667 1.8097126-3.946719 1.9742319-.657787.1645193-.98668-.493558-1.644467-.493558-1.644466 0-1.973359-.1645193-2.960039-.8225966l-1.315573-1.8097126c-.49334-.1645193-.98668-.1645193-1.808913 0-.164447 0-1.315574.6580773-1.644467.8225966-5.097846 2.3032706-8.715672 7.2388504-14.63575 12.0099108l-1.97336 2.632309c-3.782273 5.593657-5.097846 8.884044-5.097846 11.187314-.328893 3.125868-.49334 8.225967 2.4667 10.035679l.657786.822597c2.4667 1.316155 2.302253 1.480674 6.577866 1.480674 5.755632 0 6.577865-.164519 11.182371-1.480674l3.288933-.822597c7.564545-2.632309 14.63575-5.922695 21.378063-9.871159l6.742312-4.93558c1.532826-1.082473 2.867899-1.423045 4.032326-1.591215l5.834472-15.025237 2.795593-6.4162537c0 .1645193 5.591185-15.4648166 5.755632-16.1228939.205558-.4112984.475354-.886862.648793-1.185696l.091217-.1561648c.05139-.0874009.082223-.1388132.082223-.1388132l.98668-1.3161546 5.920079-15.135778c.07724-.0772742 1.641937-3.6026182 3.279742-7.3369361l.317528-.7245109c.953043-2.176142 1.89997-4.3522839 2.563904-5.8943282l.21045-.4896598c.431619-1.006276.699581-1.6450536.699581-1.6774589 1.151127-3.5371655 2.261142-6.0460853 3.20671-7.9586224l.242858-.4856782c.836381-1.6545114 1.526731-2.8431558 1.977171-3.8946489l.49334-1.3161546c.328894-.8225966 2.96004-4.6065411 6.084526-4.6065411zm-240.749877 9.5421209c.98668.3290386 4.111166.8225966 4.440059.8225966l2.137807.8225966 2.302252 1.480674 1.48002 1.4806739.822233 1.3161546v2.3032706l-1.480019 3.6194252c-.657787 1.6451932-3.124486 9.5421209-3.124486 9.8711595-.601405 1.6545944-5.326729 16.7866119-7.012135 21.8832537l-.148883.4476922c-.093026.2779043-.173302.5137377-.239081.7017598l-4.2756127 16.2874133-4.6045058 13.9841427c-.1644466.3290386-1.3155731 4.9355797-1.3155731 5.1000987l.9866798.16452c1.9733597-2.796829 4.1111659-4.771061 7.5645458-8.7195246l2.466699-2.4677899c2.795593-2.6323092 6.742312-5.9226957 9.537905-7.2388503l3.124486-1.480674c1.97336-1.8097125 4.768953-2.4677898 6.248972-2.4677898l.98668.1645193 3.45338 1.1516353 3.124486 1.1516352c.328893.1645194 1.808913.8225967 2.466699 1.3161547 1.644467 1.4806739 2.96004 3.1258672 3.617826 5.2646184l.657787 3.6194252v3.7839445l-2.137807 8.061447-2.960039 8.390486-.822233 1.480674-.657787 3.454905c-.328893.658078-.822233 2.961348-.822233 3.454906 0 .987116.164447 2.46779.98668 2.961348h.657786c.98668 0 2.302253-.164519 3.288933-.493558l2.631146-.822597c4.44006-1.316154 12.004605-7.23885 18.08913-11.680872l5.591186-4.606541c5.649087-5.651583 9.179758-8.849181 11.663146-10.6643977 2.37716-4.9890918 5.381886-10.007593 9.05713-13.6844624 6.413419-6.4162537 11.675712-10.5292368 15.951324-12.6679881.49334-.3290386 5.426739-.8225966 6.248972-.9871159.49334-.3290387 1.97336-.8225967 2.137807-.8225967h2.466699l6.906759.8225967 3.124486 1.3161546c1.644466 1.1516353 4.111166 3.9484638 4.440059 6.087215l.49334 5.1000991c0 .1472015-.131648 1.2163493-.277154 2.382544l-.051739.4142846c-.49334 1.6451932-1.151127 3.2903865-1.97336 4.6065411l-2.631146 3.2903865c-9.702351 11.3518332-17.431343 17.9326062-37.493833 22.7036672v2.46779c0 .164519.657786 3.783944.822233 3.783944.657787.987116 1.97336 2.138751 3.288933 2.46779l3.946719.493558c2.302253 0 5.097846-.987116 7.728992-2.138751 5.920079-2.632309 11.511265-6.745293 12.333498-6.745293l2.302253-.658077c1.151126 0 2.960039-.822596 4.275612 2.303271.328894.822596.98668 1.974232.98668 5.264618 0 .822597-.49334 1.974232-.822233 2.632309-1.151127 1.480674-2.302253 2.46779-3.453379 3.290387l-2.96004 2.30327c-.822233.658078-2.631146 1.645194-2.960039 1.645194l-5.426739 2.632309c-2.137807.493558-3.94672 1.151635-5.426739 1.480674-4.296832 1.003037-6.722463 1.132461-9.015298 1.149161l-.50804.002165-.507907.000309c-2.302253 0-7.564546-.987116-8.715672-1.645193-1.151127-.658077-4.275613-2.46779-6.906759-5.593657-1.567636-1.996056-2.641257-3.992111-3.113833-8.343881-.244458.168613-.468157.318716-.668439.446953-.822234.493558-6.413419 5.429138-12.004605 9.213082l-1.97336.987116c-2.795592 2.138752-5.920079 3.290387-7.893438 4.442022-3.946719 1.480674-7.564546 2.632309-10.524585 2.632309-3.288933 0-7.400099-.658077-10.524585-2.30327-.98668-.493558-2.302253-1.809713-2.960039-2.632309-.98668-.987116-2.795593-4.112984-3.124486-6.416254l-.822234-2.796829c-.164446-.658077-.657786-2.796828-.657786-2.796828v-4.606541l.822233-5.593657c0-1.316155 2.631146-10.529237 5.097846-16.1228943v-.8225967l-2.302253.8225967-2.795593 1.9742323-8.222332 8.225966c-.328893.329039-3.946719 4.606541-5.262292 5.922696l-3.6178261 4.442021-1.4800198 2.961348-6.5778654 9.542121c-.5539256.761984-.9037732 1.407301-1.1845721 1.960512l-.1997622.398022c-.2865529.57228-.5284398 1.03576-.9179187 1.425411l-2.9600394 1.480674c-1.3155731.658077-2.3022529.822596-4.111166.822596-2.1897368 0-2.836135-.441149-3.3432847-1.004194l-.135916-.15634c-.3140046-.370726-.6233101-.779062-1.2897517-1.142736l-.6577866-1.480674c0-2.796829-1.6444663-4.112983-1.6444663-7.732409 0-.493558.1644466-1.809712.1644466-1.809712l1.4800197-8.884044c-.0925012-.647795.5954767-3.586007 1.3615026-6.589288l.1712272-.667562c.5444796-2.111611 1.1018424-4.173815 1.4273097-5.411138l4.2756126-17.6035678 3.9467192-12.6679881 7.2356521-25.3359762c.1644466-.9871159 1.808913-6.4162537 2.3022529-7.567889l4.4400594-13.1615461c.164446-.3290386 1.151126-1.3161546 1.48002-1.6451932zm851.175794 88.5113974c2.466699 0 3.946719.658077 7.728991 2.303271l2.302253 1.645193c2.137807 1.480674 2.137807 2.46779 2.96004 4.277502v2.303271l-.822233 2.30327c-.49334.822597-5.426739 8.555005-5.920079 9.542121l-.822233 2.303271c0 1.809713-1.151127 1.645193-5.097846 3.619425h-.822233c-.49334-.164519-1.97336-.658077-1.97336-.822597l-5.920079-5.922695c-.822233-.329039-.98668-2.46779-.98668-5.100099 0-.822597.164447-2.796829.164447-2.961348 0-1.316155 2.795593-4.442022 2.795593-6.580773.328893-.493558 1.480019-3.290387 1.644466-3.783945l1.48002-2.138751c.657786-.658077 1.644466-.987116 3.288933-.987116zm-888.9985204-89.6630327c4.1111659.8225966 12.1690511 3.6194252 12.662391 6.4162537l.3288933 1.8097126v1.9742319l-.3288933 1.9742319c0 .3290387-.4933399.8225967-.6577865.8225967-1.4800198.9871159-3.2889328 1.8097125-5.4267391 2.4677899h-1.1511264c-.4933399 0-2.3022529-.987116-3.1244861-1.8097126h-.8222332c-.3288933 0-2.6311462.6580773-2.9600395.9871159-4.1111659.493558-6.2489722 1.9742319-8.8801184 3.9484638l-6.2489722 4.7710605c-.1715965.1716723-1.7756506 1.6420833-3.5509769 3.2429522l-.4466699.402259-.4494271.4036382c-1.348038 1.208927-2.6741805 2.3817103-3.4463647 3.0254816-.4933399.987116-2.7955928 3.7839445-4.7689524 5.7581764l-4.6045059 6.4162538c-.3986585.3988347-1.3385261 1.9579159-2.2760509 3.589659l-.3504003.6131855c-.8704182 1.5308579-1.6790607 3.0060932-1.9780546 3.5295638-7.0712054 14.148662-9.537905 21.716551-9.537905 24.5133796 0 3.9484633.3288933 9.5421213.9866799 13.3260653l.9866798 2.303271c0 .329038.4933399 1.316154.6577865 1.809712l1.808913 2.303271c.6577866.658077 2.3022529 2.961348 3.7822727 4.112983 1.4800197.987116 6.0845256 2.961348 10.1956915 2.961348.9866798 0 6.0845256 1.645193 8.2223318 1.645193 4.2756126 0 12.9912844-2.30327 18.9113633-2.30327h2.4666996c.1370388 0 .6166748.456998.7727469.60933l.0494862.048747c.3288933.658077.4933399 1.151635.4933399 1.809712v1.645194l-.4933399 2.30327c-2.3022529 4.277503-6.7423121 4.112983-10.3601381 5.758177-1.3155731.329038-2.4666996 1.151635-4.6045058 1.316154-5.4267391 1.316155-9.0445651 1.809713-9.7023516 1.809713l-.2331956-.000417c-1.2941026-.005136-6.5420059-.073617-8.9758161-.986699-3.1244861 0-8.0578852-2.303271-11.0179247-3.125867l-6.2489722-3.290387c-3.9467193-2.138751-5.26229238-3.783944-12.66239104-16.780971l-1.64446637-3.948464c-.74000987-2.665213-.81401086-4.397602-.82141096-8.075596l-.00082223-1.302006c0-5.9226953 1.15112646-10.858275 3.1244861-16.9454901l5.59118566-13.8196234c.32889328-.493558 1.80891304-4.1129831 3.12448614-5.4291377l1.6444663-3.2903866c.8222332-1.8097126 4.4400592-6.9098117 4.7689525-7.2388503l17.9246835-18.4261645c4.4400592-3.6194252 12.662391-8.8840436 20.5558296-11.8453915l7.235652-1.8097126zm761.5523764 49.5203171c1.808913 0 9.209011.3290387 9.209011 7.567889l-3.288932 8.7195243-2.795593 8.3904857-2.96004 7.8969276c-.422079 1.07486-.906831 2.158676-1.402029 3.24936l-.425795.936505c-1.490709 3.283312-2.941128 6.623055-2.941128 9.962797 0 .164519 0 .658077.164447.493558l.986679-.164519c4.604506-5.429138 10.360139-10.035679 12.991285-13.819624.822233-.987116 12.497944-15.1357777 13.649071-15.9583743.328893-.1645193.657786-.6580773.822233-.8225966l2.137806-4.4420219c2.302253-4.7710604 3.453379-8.2259663 6.413419-8.2259663.98668 0 4.275613.6580774 5.920079 1.480674l1.48002.8225966c1.808913 1.8097126 3.617826 4.4420218 3.617826 7.4033697v2.7968285l-6.577866 22.7036673c-.657786 3.290386-.822233 3.619425-.822233 6.745292 0 .24245.022321.663546.050516 1.106974l.025222.381903c.043156.633468.088709 1.221363.088709 1.307952 0 2.632309 4.275612 4.442021 4.275612 6.416253v.987116c0 .658078-.49334 3.125868-.657786 3.619425l-.822234 1.645194c-.657786.658077-1.480019.822596-3.288932.822596-2.795593 0-7.893439-.329038-9.209012-3.454905l-3.124486-7.074331-.164447-3.619426c0-.426531.022558-1.123877.050964-1.841282l.017612-.430845c.045116-1.073099.095871-2.078495.095871-2.169894l1.808913-10.529237c0-.658078.164447-1.316155.328893-2.138752l-3.288933 3.948464-8.222331 12.009911c-.447448.646599-1.090293 1.458608-1.769491 2.272364l-.315478.375109c-1.478872 1.745522-3.012877 3.382352-3.012877 3.275223l-9.702352 8.884043c-2.631146 2.46779-4.275612 2.961348-8.057885 3.783945-1.97336.493558-6.248972-1.480674-7.235652-2.46779l-2.795593-3.619425c-.49334-.987116-1.48002-1.809713-1.48002-3.948464 0-4.606541.657787-5.593657 4.604506-18.097126l1.48002-4.606541c.328893-.822597.822233-2.796829 1.151126-3.948464l2.302253-7.2388502c.034024-.1191346.073327-.2664391.116453-.4351745l.090918-.3640485c.380609-1.5545184.943756-4.1930875.943756-4.4653954.080396-.48259.986192-2.6953546 1.910331-4.9081193l.251886-.6021813c.878949-2.0985354 1.70776-4.0537562 1.784502-4.360859l1.315573-3.9484638c.98668-1.8097126.98668-2.3032706 4.275613-2.3032706zm-42.492433 1.9747728c2.044156.0056792 3.754525.0709893 4.50526.8220558l1.480019 1.4806739 2.96004 2.1387513c.149497.2243445.706713.8225966 1.300994 1.4393896l.358051.3694577c.415997.4269963.813832.8282516 1.066371 1.0818753l.234623.2351446h.822233c.328894-.1645194 3.94672-.6580773 4.275613-.8225967h2.302253c.49334 0 1.151126 1.480674 1.48002 2.1387513v4.6065411c0 .2961348-.133202 1.0586819-.279724 1.882862l-.098339.5541422c-.146522.8315835-.279724 1.6348491-.279724 2.0050176-1.315573 1.3161546-1.644466 6.580773-3.124486 8.0614471l-3.617826 7.40337c-3.782273 7.567889-17.59579 23.690783-29.435948 27.310208l-3.782273.822596h-4.440059c-3.453379-.822596-5.097846-2.796828-8.222332-5.922695l-1.315573-2.961348c-.98668-2.303271-1.151126-3.948464-2.302253-10.364718v-.822596c.822233-7.896928 1.48002-9.048563 4.440059-14.80674l5.097846-8.0614468c7.564546-7.567889 10.689032-12.3389494 16.444664-15.629336l4.275613-2.1387512c1.973359-.6580773 2.137806-.8225966 5.262292-.8225966zm1.709667 15.6287951c-.328893 0-1.97336.493558-2.302253.6580773l-8.880119 5.9226958c-5.591185 4.7710606-10.360138 11.3518336-13.320177 16.9454906l-1.644466 5.922696c0 .822596.328893 1.645193.986679 1.645193.164447 0 1.48002-.493558 2.137807-.822597 6.742312-2.961348 10.853478-5.758176 20.720276-16.287413l2.302253-2.961348c1.412746-2.826741 1.476962-2.8053263 1.479881-7.3763925l.000139-.6850543c0-1.4806739-.164447-2.9613479-1.48002-2.9613479zm-581.976649-8.2259663c-1.315573.493558-2.960039 1.1516353-4.111166 1.8097126-1.315573.8225966-2.137806 1.480674-3.124486 2.3032706l-4.604506 4.9355798-4.768952 6.2517344-4.111166 6.9098116 5.262292-1.645193 5.591186-3.1258674c2.302253-1.6451933 4.604506-3.4549059 6.577865-5.4291378l2.302253-2.6323092c1.644467-2.3032705 2.4667-3.7839445 3.45338-5.7581764.164446-.493558.49334-1.1516353.49334-1.8097126s-.164447-1.1516353-.657787-1.4806739c-.657786-.3290387-1.48002-.3290387-2.302253-.3290387zm154.579839-11.8453914s-1.644466-.1645194-2.960039.3290386l-1.808913.493558s-1.808913.6580773-2.4667.8225966l-6.742312 3.2903865-5.920079 3.6194252c-.49334.3290387-4.275613 2.3032706-8.057885 5.7581764-1.97336 1.8097126-4.111166 3.7839445-5.920079 5.7581764l-2.137806 3.1258672c-.49334.3290387-.164447.8225967.328893.8225967l3.453379-1.1516353c2.4667-.987116 5.097846-2.3032706 7.400099-3.2903865.822233-.3290387 2.960039-1.480674 4.440059-2.3032706l8.880118-4.7710605 3.288933-2.1387512 2.302253-1.3161546 1.808913-.8225966c1.808913-1.1516353 3.288933-1.974232 4.604506-3.4549059.49334-.6580773.822233-1.6451932.98668-2.6323092 0-.493558 0-.987116-.328893-1.4806739zm629.076547-70.41373073c1.835255.00567914 2.37709.07098927 3.878559.82205576l5.097846 2.96134787.822233.82259663c.657787.82259663 2.302253 2.79682854 2.302253 2.79682854v5.92269573c0 .7107235-1.098767 3.4304254-2.296043 6.2486809l-.300793.7055115c-1.206749 2.8214144-2.428653 5.5821803-2.665456 6.371873l-3.782273 9.048563-5.920079 15.4648166-3.617826 11.6808722c0 .3290386-.657787 2.1387512-.657787 2.3032705l-2.302252 13.9841427-1.48002 5.2646185c-.657787 2.1387512-3.782273 6.580773-6.577866 6.580773l-.822233.8225966h-.657786l-2.302253-1.4806739c-.822234 0-4.44006-5.4291378-4.44006-8.061447v-5.9226957l1.48002-10.3647175v-1.480674l.822233-4.4420218c0-.8225966 1.151127-5.1000991 1.315573-5.9226957l3.124487-9.7066403c0-.1645193.657786-2.6323092.657786-2.7968285 3.45338-10.5292369 9.044565-21.3875124 10.360138-27.4747275 2.96004-7.23885031.328894-14.148662 7.400099-14.148662zm-350.997284 35.70015293c3.124486 0 5.755633 3.6194251 5.755633 8.8840436 0 2.6323092-.657787 5.2646184-.98668 5.593657-.575563.5758177-3.535603 3.2492567-6.516198 5.9226958l-.638152.5721153c-2.759223 2.4725415-5.390579 4.8158926-6.001381 5.3505804-1.315573 1.3161546-2.137806 1.3161546-3.124486 1.3161546h-.657787c-.328893 0-1.315573-.1645193-1.315573-.1645193l-1.48002-1.6451933-1.315573-2.7968285c0-.1645193-.328893-1.4806739-.657786-2.1387512 0-.493558-.164447-2.9613479 0-2.9613479l.822233-2.9613479c0-.493558 2.631146-3.9484638 4.933399-6.2517344 4.275613-5.2646184 11.017925-8.7195242 11.182371-8.7195242z" fill="#fff"/></svg>